General

Complete name                    : The.Innkeepers.[2011].ENG.[DvDRip].Xvid-{RedDragon}.avi
Format                           : AVI
Format/Info                      : Audio Video Interleave
File size                        : 705 MiB
Duration                         : 1h 41mn
Overall bit rate                 : 1 005 Kbps
IMDB                             : http://www.imdb.com/title/tt1594562/
IMDB Rating                      : 7/10

Video

ID                               : 0
Format                           : MPEG-4 Visual
Format profile                   : Advanced Simple@L5
Format settings, BVOP            : Yes
Format settings, QPel            : No
Format settings, GMC             : No warppoints
Format settings, Matrix          : Default (H.263)
Codec ID                         : XVID
Codec ID/Hint                    : XviD
Duration                         : 1h 41mn
Bit rate                         : 871 Kbps
Width                            : 640 pixels
Height                           : 272 pixels
Display aspect ratio             : 2.35:1
Frame rate                       : 23.976 fps
Color space                      : YUV
Chroma subsampling               : 4:2:0
Bit depth                        : 8 bits
Scan type                        : Progressive
Bits/(Pixel*Frame)               : 0.209
Stream size                      : 632 MiB (87%)
Writing library                  : XviD 1.2.1 (UTC 2008-12-04)

Audio

ID                               : 1
Format                           : MPEG Audio
Format version                   : Version 1
Format profile                   : Layer 3
Mode                             : Joint stereo
Mode extension                   : MS Stereo
Codec ID                         : 55
Codec ID/Hint                    : MP3
Duration                         : 1h 41mn
Bit rate mode                    : Constant
Bit rate                         : 128 Kbps
Channel(s)                       : 2 channels
Sampling rate                    : 48.0 KHz
Stream size                      : 92.9 MiB (13%)
Alignment                        : Aligned on interleaves
Interleave, duration             : 167 ms (4.00 video frames)
Interleave, preload duration     : 216 ms
 

FORUMS. 
 
 
Please Join my Forums :
 
http://discussionforums.freeforhosting.com/    --&gt; Discussion Forum.